<svg
  version="1.1"
  xml:space="preserve"
  viewBox="0 0 728.49854 304.36668"
  xmlns="http://www.w3.org/2000/svg"
  xmlns:svg="http://www.w3.org/2000/svg">
  <defs id="defs">
    <clipPath
       clipPathUnits="userSpaceOnUse"
       id="clipPath">
      <path d="M 0,1000 H 1500 V 0 H 0 Z" id="path21" />
    </clipPath>
  </defs>
  <g id="g15" transform="matrix(1.3333333,0,0,-1.3333333,-571.42039,902.89478)">
    <g id="g17">
      <g id="g19" clip-path="url(#clipPath)">
        <g id="g25" transform="translate(816.2097,518.5161)">
          <path
               d="m 0,0 v -15.918 c 3.361,-4.293 5.321,-9.687 5.321,-15.486 0,-13.835 -11.256,-25.091 -25.091,-25.091 h -97.801 c -2.255,-4.935 -5.902,-9.102 -10.439,-12 h 108.24 c 5.265,0 10.272,1.109 14.812,3.095 5.212,2.28 9.799,5.723 13.438,10 5.507,6.474 8.841,14.85 8.841,23.996 C 17.321,-18.319 10.576,-6.626 0,0"
               style="fill:#00c2b2;fill-opacity:1;fill-rule:nonzero;stroke:none"
               id="path27" />
        </g>
        <g id="g29" transform="translate(741.2043,603.9951)">
          <path
               d="m 0,0 c 0,-5.922 -0.869,-11.792 -2.583,-17.444 l -3.093,-10.208 10.329,2.656 c 3.596,0.924 7.322,1.393 11.074,1.393 21.2,0 38.964,-14.957 43.318,-34.871 h 0.058 12.159 c -4.522,26.572 -27.696,46.871 -55.535,46.871 -1.57,0 -3.137,-0.065 -4.696,-0.194 C 11.676,-7.907 12,-3.963 12,0 c 0,39.729 -32.322,72.051 -72.051,72.051 -19.764,0 -38.469,-8.05 -52.038,-22.241 -10.921,5.419 -20.087,8.061 -27.917,8.061 -38.851,0 -73.526,-24.869 -86.233,-61.143 -1.903,0.282 -3.829,0.423 -5.767,0.423 -21.571,0 -39.119,-17.548 -39.119,-39.119 0,-3.487 0.472,-6.964 1.387,-10.317 -10.27,-1.919 -19.703,-6.932 -27.15,-14.54 -9.432,-9.636 -14.626,-22.371 -14.626,-35.858 0,-28.282 23.009,-51.291 51.29,-51.291 h 129.107 v 0.614 10.903 0.483 h -129.107 c -21.665,0 -39.29,17.626 -39.29,39.291 0,21.156 17.205,38.77 38.354,39.265 l 9.696,0.227 -4.532,8.574 c -2.076,3.931 -3.129,8.187 -3.129,12.649 0,14.954 12.165,27.119 27.119,27.119 2.745,0 5.454,-0.408 8.051,-1.213 l 5.886,-1.826 1.668,5.932 c 9.571,34.048 40.986,57.827 76.395,57.827 6.687,0 15.584,-2.964 26.443,-8.808 l 4.308,-2.319 3.138,3.753 c 11.454,13.698 28.245,21.554 46.066,21.554 C -26.938,60.051 0,33.112 0,0"
               style="fill:#00c2b2;fill-opacity:1;fill-rule:nonzero;stroke:none"
               id="path31" />
        </g>
        <g id="g33" transform="translate(523.0007,529.6191)">
          <path
               d="M 0,0 H 57.991 V 10.902 H 0 c -12.758,0 -23.081,-10.322 -23.081,-22.965 v -40.709 h 11.018 v 26.328 h 70.054 v 11.018 h -70.054 v 3.363 C -12.063,-5.451 -6.727,0 0,0"
               style="fill:#554a5d;fill-opacity:1;fill-rule:nonzero;stroke:none"
               id="path35" />
        </g>
        <path
            d="m 592.589,476.847 h 10.902 v 81.187 h -10.902 z"
            style="fill:#554a5d;fill-opacity:1;fill-rule:nonzero;stroke:none"
            id="path37"/>
        <g id="g39" transform="translate(693.0037,462.021)">
          <path
               d="M 0,0 C 2.001,3.404 3.155,7.361 3.155,11.579 V 78.5 H -7.748 V 25.844 h -47.088 c -6.727,0 -12.062,5.451 -12.062,12.063 V 78.5 H -77.917 V 37.907 c 0,-12.642 10.323,-23.081 23.081,-23.081 h 47.088 v -3.247 c 0,-5.459 -3.72,-10.118 -8.737,-11.579 -1.059,-0.309 -2.172,-0.483 -3.325,-0.483 h -58.107 v -10.903 h 58.107 c 8.425,0 15.814,4.587 19.81,11.386"
               style="fill:#554a5d;fill-opacity:1;fill-rule:nonzero;stroke:none"
               id="path41" />
        </g>
        <g id="g43" transform="translate(788.7112,476.8471)">
          <path
               d="M 0,0 V 40.709 C 0,53.352 -10.322,63.674 -22.849,63.674 H -80.956 V 0 h 10.903 v 52.772 h 47.204 c 6.495,0 11.947,-5.451 11.947,-12.063 V 0 Z"
               style="fill:#554a5d;fill-opacity:1;fill-rule:nonzero;stroke:none"
               id="path45" />
        </g>
        <g id="g47" transform="translate(858.4143,540.5214)">
          <path
               d="M 0,0 H -45.329 -57.36 -58.107 V -13.674 -28.54 -63.674 h 10.902 v 30.549 22.223 H -45.506 0 c 6.495,0 11.946,-5.452 11.946,-12.063 v -40.709 h 10.903 v 40.709 C 22.849,-10.323 12.526,0 0,0"
               style="fill:#554a5d;fill-opacity:1;fill-rule:nonzero;stroke:none"
               id="path49" />
        </g>
        <g id="g51" transform="translate(973.8142,529.6191)">
          <path
             d="M 0,0 V 10.902 H -43.841 V 28.416 H -54.744 V 10.902 H -80.956 V 0 h 26.212 v -29.691 c 0,-12.759 10.207,-23.081 23.081,-23.081 H 0 v 11.018 h -31.663 c -6.727,0 -12.178,5.451 -12.178,12.063 V 0 Z"
             style="fill:#554a5d;fill-opacity:1;fill-rule:nonzero;stroke:none"
             id="path53" />
        </g>
      </g>
    </g>
  </g>
</svg>
